<?xml version="1.0" encoding="utf-8"?>
<svg width="16px" height="16px" viewBox="0 0 16 16" version="1.1" xmlns:xlink="http://www.w3.org/1999/xlink" xmlns="http://www.w3.org/2000/svg">
  <desc>Created with Lunacy</desc>
  <path d="M11.5 0C11.776 0 12 0.224 12 0.5L12 1L4 1L4 0.5C4 0.224 4.224 0 4.5 0L11.5 0ZM14 2.5C14 2.224 13.776 2 13.5 2L2.5 2C2.224 2 2 2.224 2 2.5L2 3L14 3L14 2.5ZM15.5 4L0.5 4C0.224 4 0 4.224 0 4.5L0 15.5C0 15.776 0.224 16 0.5 16L15.5 16C15.776 16 16 15.776 16 15.5L16 4.5C16 4.224 15.776 4 15.5 4ZM10 8.438C10 8.714 10.224 8.938 10.5 8.938C10.776 8.938 11 8.714 11 8.438C11 6.874 9.426 6.165 8.593 6.009C8.447 5.982 8.296 6.02 8.181 6.115C8.066 6.21 8 6.351 8 6.5L8 11.202C7.706 11.077 7.369 11 7 11C5.878 11 5 11.659 5 12.5C5 13.341 5.878 14 7 14C8.122 14 9 13.341 9 12.5L9 7.187C9.453 7.388 10 7.77 10 8.438Z" id="Combined-Shape" fill="#1F2022" fill-rule="evenodd" stroke="none" />
</svg>