<?xml version="1.0" encoding="utf-8"?>
<svg width="12px" height="18px" viewBox="0 0 12 18" version="1.1" xmlns:xlink="http://www.w3.org/1999/xlink" xmlns="http://www.w3.org/2000/svg">
  <desc>Created with Lunacy</desc>
  <path d="M12 2.77155C12 1.24091 10.72 0 9.1405 0C7.5615 0 6.28117 1.24091 6.28122 2.77155C6.28122 4.30215 7.56154 5.54294 9.1405 5.54294C10.72 5.54294 12 4.30215 12 2.77155ZM2.95217 10.439C3.19068 10.439 3.40232 10.3348 3.54763 10.1732L8.36066 5.8776C7.40537 5.65294 6.61221 5.02456 6.18491 4.18988L2.38258 9.09563C2.24244 9.28529 2.1594 9.45067 2.1594 9.67028C2.1594 10.0946 2.51475 10.439 2.95217 10.439ZM4.78883 13.4169C4.69697 13.503 2.23824 15.7594 0.638798 14.5681C0.264263 14.2898 0.0457389 13.9043 0.0065683 13.4537C-0.10028 12.2295 1.12774 10.8232 1.4152 10.5126L1.81883 9.71777C1.81883 9.71777 1.92375 10.0902 2.31919 10.4346C2.74209 10.802 2.92169 10.8214 2.92169 10.8214L2.02484 11.1245C1.62218 11.5717 0.812736 12.6401 0.878188 13.3823C0.897711 13.5972 0.990662 13.7601 1.17161 13.8948C2.00284 14.5135 3.67454 13.2763 4.19451 12.7939C4.23783 12.7566 4.99455 12.1045 5.96218 11.6551C7.72965 10.8327 8.73725 11.3486 9.27023 11.9264C9.68654 12.3774 9.86938 12.9176 9.81337 13.5323C9.62726 15.5813 6.71831 17.8152 6.59395 17.9098C6.5149 17.97 6.419 18 6.32496 18C6.1949 18 6.06702 17.9444 5.9807 17.8378C5.8314 17.6536 5.86436 17.3867 6.05417 17.2419C6.81453 16.6626 8.81484 14.8532 8.942 13.4571C8.97546 13.0806 8.87 12.7649 8.6176 12.4922C7.41506 11.1885 4.84291 13.371 4.78947 13.4163L4.78883 13.4169Z" id="Combined-Shape" fill="#1F2022" fill-rule="evenodd" stroke="none" />
</svg>