<?xml version="1.0" encoding="utf-8"?>
<svg width="26px" height="6px" viewBox="0 0 26 6" version="1.1" xmlns:xlink="http://www.w3.org/1999/xlink" xmlns="http://www.w3.org/2000/svg">
  <desc>Created with Lunacy</desc>
  <g id="Options" opacity="0.3">
    <path d="M3 6C4.65685 6 6 4.65685 6 3C6 1.34315 4.65685 0 3 0C1.34315 0 0 1.34315 0 3C0 4.65685 1.34315 6 3 6Z" transform="translate(20 0)" id="Dot" fill="#1F2022" stroke="none" />
    <path d="M3 6C4.65685 6 6 4.65685 6 3C6 1.34315 4.65685 0 3 0C1.34315 0 0 1.34315 0 3C0 4.65685 1.34315 6 3 6Z" transform="translate(10 0)" id="Dot" fill="#1F2022" stroke="none" />
    <path d="M3 6C4.65685 6 6 4.65685 6 3C6 1.34315 4.65685 0 3 0C1.34315 0 0 1.34315 0 3C0 4.65685 1.34315 6 3 6Z" id="Dot" fill="#1F2022" stroke="none" />
  </g>
</svg>