<?xml version="1.0" encoding="utf-8"?>
<svg width="16px" height="16px" viewBox="0 0 16 16" version="1.1" xmlns:xlink="http://www.w3.org/1999/xlink" xmlns="http://www.w3.org/2000/svg">
  <desc>Created with Lunacy</desc>
  <path d="M0 7.99579C0 3.57868 3.58334 0 8.00033 0C12.4197 0 16 3.57868 16 7.99579C16 12.4171 12.4197 16 8.0003 16C3.58334 16 0 12.4171 0 7.99579ZM10.3784 7.38896C10.575 7.19649 10.7446 6.96823 10.8873 6.70351C11.0301 6.43879 11.1015 6.13069 11.1009 5.77979C11.1009 5.33316 10.9756 4.91965 10.7256 4.5393C10.4753 4.15866 10.1206 3.85778 9.66159 3.63674C9.2026 3.41537 8.67344 3.30455 8.0738 3.30455C7.42901 3.30455 6.86428 3.43708 6.38061 3.7018C5.89666 3.96622 5.52863 4.30022 5.27624 4.70347C5.02414 5.10671 4.89795 5.50485 4.89795 5.89757C4.89795 6.0879 4.97746 6.26466 5.13648 6.4279C5.2958 6.59114 5.49124 6.67276 5.72285 6.67276C6.11529 6.67276 6.38213 6.43909 6.52308 5.97167C6.67217 5.52504 6.85376 5.18715 7.0688 4.95766C7.28384 4.72818 7.61875 4.61344 8.0738 4.61344C8.46262 4.61344 8.78007 4.72729 9.02612 4.95466C9.27248 5.18204 9.39504 5.46091 9.39504 5.79187C9.39504 5.96141 9.35529 6.11831 9.27426 6.26318C9.19386 6.40774 9.09474 6.53905 8.9767 6.65709C8.85895 6.77487 8.6677 6.94952 8.40297 7.18111C8.10089 7.44583 7.86117 7.67413 7.68318 7.86657C7.50548 8.059 7.36243 8.28215 7.2555 8.53664C7.14798 8.7911 7.09407 9.09198 7.09407 9.43921C7.09407 9.71626 7.16724 9.92496 7.31393 10.0656C7.46121 10.2062 7.6419 10.2764 7.85695 10.2764C8.27047 10.2764 8.51653 10.0614 8.59482 9.63134C8.64091 9.42868 8.67492 9.28682 8.69752 9.20642C8.72012 9.12573 8.75202 9.045 8.79359 8.9643C8.83487 8.88357 8.89812 8.79477 8.98274 8.69747C9.06736 8.60052 9.18029 8.48789 9.32064 8.35958C9.82965 7.90484 10.1823 7.5814 10.3784 7.38896ZM8.57044 12.4472C8.38463 12.6126 8.16928 12.6957 7.92534 12.6957C7.67295 12.6957 7.45279 12.614 7.26487 12.4505C7.07665 12.2873 6.98236 12.0587 6.98236 11.7651C6.98236 11.5046 7.07362 11.2853 7.25554 11.1076C7.43746 10.9299 7.66061 10.8411 7.92534 10.8411C8.18585 10.8411 8.40511 10.9299 8.58311 11.1076C8.7608 11.2853 8.84995 11.5045 8.84995 11.7651C8.84961 12.0545 8.75654 12.2819 8.57044 12.4472Z" id="FAQ" fill="#1F2022" fill-rule="evenodd" stroke="none" />
</svg>