<?xml version="1.0" encoding="utf-8"?>
<svg width="16px" height="16px" viewBox="0 0 16 16" version="1.1" xmlns:xlink="http://www.w3.org/1999/xlink" xmlns="http://www.w3.org/2000/svg">
  <desc>Created with Lunacy</desc>
  <path d="M15.4198 6.12538C14.7045 2.63645 11.554 0 7.78606 0C3.49276 0 0 3.42272 0 7.62983C0 11.3849 2.7832 14.5129 6.43416 15.1421C6.3147 14.4405 6.5839 13.6244 7.21484 13.0059C7.72958 12.5014 8.39664 12.2124 9.04485 12.2124C9.11534 12.2124 9.18513 12.2157 9.2531 12.2224L9.2531 10.1714C8.81957 10.4126 8.31939 10.5525 7.7858 10.5525C6.14149 10.5525 4.80353 9.24116 4.80353 7.62983C4.80353 6.01845 6.14146 4.70735 7.7858 4.70735C9.33442 4.70735 10.6099 5.87002 10.7538 7.35089L15.4198 6.12538ZM7.55908 4.18563L7.03953 0.604555L7.61411 0.524725L8.1338 4.10566L7.55908 4.18563ZM3.49772 1.889L5.3838 4.91888C5.86371 4.15461 6.97971 4.10319 6.97973 4.10348L6.39753 0.749219C4.81188 0.749219 3.49772 1.889 3.49772 1.889ZM5.67425 7.62986C5.67425 6.48874 6.6216 5.56045 7.78606 5.56045C8.93227 5.56045 9.86601 6.46002 9.8958 7.57615L9.80842 7.59915L9.25369 7.59915L9.25369 9.11519C8.87298 9.47616 8.35591 9.69942 7.78606 9.69942C6.62156 9.69942 5.67425 8.77088 5.67425 7.62986ZM16 12.9037L15.9978 12.9037C16.0196 13.3884 15.7994 13.9368 15.3557 14.3706C14.9327 14.7851 14.4026 15.0031 13.9253 15.0031C13.5885 15.0031 13.2778 14.8946 13.0497 14.6707C12.988 14.6108 12.9383 14.5427 12.8939 14.4722C12.8154 14.3472 12.7674 14.2067 12.7403 14.0579C12.708 13.8818 12.7102 13.6957 12.7477 13.5045C12.8219 13.1257 13.0239 12.7361 13.3557 12.4107C13.6273 12.145 13.9414 11.9625 14.258 11.8658C14.432 11.8123 14.6071 11.7837 14.7757 11.7837C14.7935 11.7837 14.8104 11.787 14.8281 11.7876C14.9857 11.7931 15.1353 11.8234 15.2741 11.8775C15.3787 11.9184 15.4782 11.9697 15.5665 12.0385L15.5665 8.3354L15.5368 8.34326L10.2664 9.72742L10.2664 14.1267L10.2574 14.1267C10.2282 14.4033 10.1202 14.6887 9.94929 14.9569C9.85836 15.1004 9.75494 15.2397 9.62461 15.3674C9.56931 15.4219 9.51158 15.4723 9.45292 15.5198C9.06319 15.8349 8.60907 16 8.19402 16C7.86036 16 7.5525 15.8927 7.32473 15.6725C7.32266 15.6706 7.32037 15.6695 7.31838 15.6679C7.19078 15.5423 7.10359 15.3902 7.04848 15.2242C6.86488 14.6726 7.07025 13.9512 7.62468 13.4076C8.0455 12.9955 8.5704 12.7808 9.04452 12.7808C9.33978 12.7808 9.6153 12.8642 9.83345 13.0344L9.83345 8.16824L9.88442 8.16824L10.2931 8.0611L10.7515 7.94034L15.5112 6.69009L15.9357 6.57853L16 6.56162L16 12.9037ZM7.78606 8.27158C7.42509 8.27158 7.13153 7.98359 7.13153 7.62986C7.13153 7.27614 7.42509 6.98815 7.78606 6.98815C8.14715 6.98815 8.44063 7.27614 8.44063 7.62986C8.44063 7.98359 8.14715 8.27158 7.78606 8.27158ZM10.8388 14.6482L10.8471 14.1272L10.8471 14.1272L10.8471 13.8876L10.8477 13.8702L10.8471 13.8596L10.8471 10.1639L14.9863 9.07654L14.9863 10.53C14.887 10.7669 14.7756 10.9975 14.653 11.2219C14.0443 11.2557 13.4283 11.5363 12.9463 12.0086C12.3729 12.5706 12.0981 13.296 12.1423 13.9507C11.7337 14.2218 11.2973 14.4557 10.8388 14.6482Z" id="Combined-Shape" fill="#1F2022" fill-rule="evenodd" stroke="none" />
</svg>