<?xml version="1.0" encoding="utf-8"?>
<svg width="7px" height="12px" viewBox="0 0 7 12" version="1.1" xmlns:xlink="http://www.w3.org/1999/xlink" xmlns="http://www.w3.org/2000/svg">
  <desc>Created with Lunacy</desc>
  <path d="M10.9339 0.798368L10.3949 0.263702C10.208 0.0879298 9.98988 0 9.7408 0C9.48668 0 9.27104 0.0879298 9.09369 0.263702L5.6 3.72814L2.10631 0.263789C1.92896 0.0880173 1.71332 8.74923e-05 1.45929 8.74923e-05C1.21012 8.74923e-05 0.992009 0.0880173 0.80513 0.263789L0.273171 0.798455C0.0910569 0.978952 0 1.19523 0 1.44712C0 1.70374 0.0911451 1.91757 0.273171 2.08862L4.95298 6.72912C5.12557 6.90971 5.34112 7 5.6 7C5.85402 7 6.07205 6.90971 6.25407 6.72912L10.9339 2.08862C11.1112 1.91276 11.2 1.69893 11.2 1.44712C11.2 1.19996 11.1112 0.983764 10.9339 0.798368L10.9339 0.798368Z" transform="matrix(4.371139E-08 -1 -1 -4.371139E-08 7 11.19995)" id="Left-Arrow" fill="#FFFFFF" stroke="none" />
</svg>