<?xml version="1.0" encoding="utf-8"?>
<svg width="94px" height="18px" viewBox="0 0 94 18" version="1.1" xmlns:xlink="http://www.w3.org/1999/xlink" xmlns="http://www.w3.org/2000/svg">
  <desc>Created with Lunacy</desc>
  <g id="Logo">
    <path d="M86.6793 0.0729237C87.4257 0.0729237 88.0398 0.048616 88.5219 0L88.5219 0.498312C87.6978 0.919651 86.8503 2.0216 85.9796 3.80419L83.7638 8.38623L83.7638 15.0101C83.7638 15.634 83.8066 16.0878 83.8921 16.3714C83.9776 16.655 84.1331 16.8494 84.3586 16.9548C84.5841 17.0601 84.9495 17.1249 85.4548 17.1492L85.4548 17.6475C84.5374 17.5989 83.1691 17.5746 81.3499 17.5746C79.4606 17.5746 78.0845 17.5989 77.2216 17.6475L77.2216 17.1492C77.7347 17.1249 78.104 17.0601 78.3294 16.9548C78.5549 16.8494 78.7085 16.657 78.7901 16.3774C78.8717 16.0979 78.9125 15.6421 78.9125 15.0101L78.9125 10.4281L74.4927 1.92032C74.2361 1.43416 73.9893 1.07968 73.7522 0.856853C73.5151 0.63403 73.3032 0.52262 73.1166 0.52262L73.1166 0C74.0962 0.0972321 75.1924 0.145847 76.4052 0.145847C77.7813 0.145847 79.5345 0.0972321 81.6647 0L81.6647 0.52262C81.0194 0.52262 80.5374 0.55503 80.2187 0.619851C79.8999 0.684673 79.7405 0.842673 79.7405 1.09386C79.7405 1.19919 79.7755 1.32478 79.8455 1.47063L83.2507 8.30115L84.3353 6.05267C85.0894 4.48075 85.4665 3.24511 85.4665 2.34571C85.4665 1.17082 84.829 0.555031 83.5539 0.498312L83.5539 0C84.7434 0.048616 85.7852 0.0729237 86.6793 0.0729237ZM19.9854 0.109386L20.8367 0.0972316C23.1691 0.0486156 24.448 0.0243079 24.6735 0.0243079C27.9777 0.0243079 30.448 0.757589 32.0845 2.22417C33.7211 3.69076 34.5394 5.82983 34.5394 8.64146C34.5394 10.4484 34.139 12.0304 33.3382 13.3876C32.5374 14.7448 31.381 15.7941 29.8688 16.5354C28.3567 17.2768 26.5549 17.6475 24.4636 17.6475C24.2303 17.6475 23.6744 17.6354 22.7959 17.6111C21.9174 17.5868 21.2799 17.5746 20.8834 17.5746C19.0175 17.5746 17.6297 17.5989 16.7201 17.6475L16.7201 17.1492C17.2332 17.1249 17.6045 17.0601 17.8338 16.9548C18.0632 16.8494 18.2187 16.655 18.3003 16.3714C18.3819 16.0878 18.4227 15.634 18.4227 15.0101L18.4227 2.66172C18.4227 2.03781 18.38 1.58407 18.2945 1.30047C18.2089 1.01688 18.0515 0.822418 17.8222 0.717083C17.5928 0.611748 17.2255 0.546928 16.7201 0.52262L16.7201 0.0243079C17.8785 0.0810266 18.967 0.109386 19.9854 0.109386ZM50.5627 16.7421C50.8115 16.9973 51.0564 17.133 51.2974 17.1492C51.8105 17.1249 52.1817 17.0601 52.4111 16.9548C52.6404 16.8494 52.7959 16.655 52.8776 16.3714C52.9592 16.0878 53 15.634 53 15.0101L53 2.66172C53 2.03781 52.9572 1.58407 52.8717 1.30047C52.7862 1.01688 52.6288 0.822418 52.3994 0.717083C52.1701 0.611748 51.8027 0.546928 51.2974 0.52262L51.2974 0.0243079C52.207 0.0729239 53.6258 0.0972316 55.5539 0.0972316C57.2799 0.0972316 58.6093 0.0729239 59.5423 0.0243079L59.5423 0.52262C59.0292 0.546928 58.6579 0.611748 58.4286 0.717083C58.1992 0.822418 58.0437 1.01688 57.9621 1.30047C57.8805 1.58407 57.8396 2.03781 57.8396 2.66172L57.8396 15.0101C57.8396 15.634 57.8824 16.0878 57.9679 16.3714C58.0535 16.655 58.2109 16.8494 58.4402 16.9548C58.6696 17.0601 59.0369 17.1249 59.5423 17.1492L59.5423 17.6475C58.6093 17.5989 57.2799 17.5746 55.5539 17.5746C53.6258 17.5746 52.207 17.5989 51.2974 17.6475C50.1467 17.5989 48.6968 17.5746 46.9475 17.5746C45.1283 17.5746 43.7911 17.5989 42.9359 17.6475L42.9359 17.1492C43.5345 17.1249 43.964 17.0479 44.2245 16.9183C44.4849 16.7887 44.6152 16.5618 44.6152 16.2377C44.6152 15.9865 44.518 15.5935 44.3236 15.0587L42.9009 10.975L38.0845 10.975L37.6764 12.0932C37.1633 13.4868 36.9067 14.5685 36.9067 15.3383C36.9067 16.0189 37.0875 16.4848 37.449 16.736C37.8105 16.9872 38.3489 17.1249 39.0641 17.1492L39.0641 17.6475C37.8746 17.5989 36.8329 17.5746 35.9388 17.5746C35.1846 17.5746 34.5705 17.5989 34.0962 17.6475L34.0962 17.1492C34.4849 17.0844 34.8562 16.8292 35.2099 16.3835C35.5637 15.9379 35.9232 15.2208 36.2886 14.2323L41.5948 0.0243079C41.9368 0.0567186 42.3567 0.0729237 42.8542 0.0729237C43.3518 0.0729237 43.7677 0.0567186 44.102 0.0243079L49.8863 15.5571C50.0884 16.0918 50.3139 16.4868 50.5627 16.7421ZM67.5598 1.30047C67.6569 1.01688 67.8358 0.822418 68.0962 0.717083C68.3567 0.611748 68.7745 0.546928 69.3499 0.52262L69.3499 0.0243079C68.3703 0.0729239 66.9631 0.0972316 65.1283 0.0972316C63.2002 0.0972316 61.7813 0.0729239 60.8717 0.0243079L60.8717 0.52262C61.3771 0.546928 61.7444 0.611748 61.9738 0.717083C62.2031 0.822418 62.3605 1.01688 62.4461 1.30047C62.5316 1.58407 62.5743 2.03781 62.5743 2.66172L62.5743 15.0101C62.5743 15.634 62.5335 16.0878 62.4519 16.3714C62.3703 16.655 62.2148 16.8494 61.9854 16.9548C61.7561 17.0601 61.3848 17.1249 60.8717 17.1492L60.8717 17.6475C62.7221 17.5989 65.5092 17.5746 69.2332 17.5746C71.7988 17.5746 73.622 17.5989 74.7026 17.6475C74.5938 16.4889 74.5394 15.0101 74.5394 13.2113C74.5394 12.2795 74.5627 11.5179 74.6093 10.9264L74.0612 10.9264C73.8824 11.9554 73.5326 12.946 73.0117 13.898C72.4908 14.8501 71.9018 15.6178 71.2449 16.2012C70.5879 16.7846 69.9835 17.0763 69.4315 17.0763L68.6385 17.0763C68.2731 17.0763 68.0087 17.0398 67.8455 16.9669C67.6822 16.894 67.5695 16.7502 67.5073 16.5354C67.4451 16.3207 67.414 15.9784 67.414 15.5084L67.414 2.66172C67.414 2.03781 67.4626 1.58407 67.5598 1.30047ZM23.9213 17.0216C23.6686 16.9041 23.4956 16.6975 23.4023 16.4018C23.309 16.106 23.2624 15.6583 23.2624 15.0587L23.2624 2.6131C23.2624 2.0216 23.309 1.57596 23.4023 1.27616C23.4956 0.976366 23.6667 0.767725 23.9155 0.650236C24.1642 0.532748 24.5374 0.474004 25.035 0.474004C26.5821 0.474004 27.7172 1.14854 28.4402 2.49764C29.1633 3.84673 29.5248 5.92706 29.5248 8.73869C29.5248 11.5422 29.1749 13.6529 28.4752 15.0709C27.7755 16.4889 26.6365 17.1978 25.0583 17.1978C24.553 17.1978 24.174 17.1391 23.9213 17.0216ZM8.54811 10.9993L12.0583 10.9993L11.965 11.4976L8.45481 11.4976L7.77843 15.1317L7.30029 15.1317L7.97668 11.4976L3.98834 11.4976L3.31195 15.1317L2.83382 15.1317L3.5102 11.4976L0 11.4976L0.0932945 10.9993L3.6035 10.9993L4.37318 6.84267L0.874636 6.84267L0.956268 6.34436L4.46647 6.34436L5.15452 2.66172L5.63265 2.66172L4.94461 6.34436L8.93294 6.34436L9.62099 2.66172L10.0991 2.66172L9.41108 6.34436L12.9213 6.34436L12.8397 6.84267L9.31778 6.84267L8.54811 10.9993ZM38.2711 10.4767L40.5685 4.25388L42.7376 10.4767L38.2711 10.4767ZM4.08163 10.9993L4.85131 6.84267L8.83965 6.84267L8.06997 10.9993L4.08163 10.9993ZM94 15.8609C94 15.156 93.7959 14.6212 93.3878 14.2566C92.9796 13.892 92.3946 13.7097 91.6327 13.7097C90.863 13.7097 90.276 13.892 89.8717 14.2566C89.4674 14.6212 89.2653 15.156 89.2653 15.8609C89.2653 16.5658 89.4674 17.0986 89.8717 17.4591C90.276 17.8197 90.863 18 91.6327 18C92.3946 18 92.9796 17.8177 93.3878 17.4531C93.7959 17.0885 94 16.5577 94 15.8609Z" id="#-DAILY." fill="#1F2022" fill-rule="evenodd" stroke="none" />
  </g>
</svg>