<?xml version="1.0" encoding="utf-8"?>
<svg width="20px" height="10px" viewBox="0 0 20 10" version="1.1" xmlns:xlink="http://www.w3.org/1999/xlink" xmlns="http://www.w3.org/2000/svg">
  <desc>Created with Lunacy</desc>
  <path d="M1.36364 2.78689L18.6364 2.78689C19.3891 2.78689 20 2.16262 20 1.39344C20 0.624262 19.3891 0 18.6364 0L1.36364 0C0.61 0 0 0.624262 0 1.39344C0 2.16262 0.61 2.78689 1.36364 2.78689ZM18.6364 7.21311L1.36364 7.21311C0.61 7.21311 0 7.83738 0 8.60656C0 9.37574 0.61 10 1.36364 10L18.6364 10C19.3891 10 20 9.37574 20 8.60656C20 7.83738 19.3891 7.21311 18.6364 7.21311Z" id="Combined-Shape" fill="#1F2022" fill-rule="evenodd" stroke="none" />
</svg>