<?xml version="1.0" encoding="utf-8"?>
<svg width="14px" height="9px" viewBox="0 0 14 9" version="1.1" xmlns:xlink="http://www.w3.org/1999/xlink" xmlns="http://www.w3.org/2000/svg">
  <desc>Created with Lunacy</desc>
  <path d="M13.0114 3.50848L8.05331 0.155237C7.74733 -0.0517456 7.38194 -0.0517456 7.076 0.155237C6.77003 0.362125 6.58739 0.732819 6.58739 1.14664L6.58739 3.64643C6.5378 3.59497 6.48328 3.54858 6.42408 3.50852L1.46592 0.155284C1.15994 -0.0516983 0.794553 -0.0516983 0.488614 0.155284C0.182634 0.362172 0 0.732866 0 1.14669L0 7.85331C0 8.26718 0.182715 8.63783 0.488614 8.84472C0.641664 8.94821 0.809425 8.99995 0.977308 8.99995C1.14511 8.99995 1.31295 8.94821 1.46592 8.84472L6.42404 5.49148C6.48332 5.45142 6.5378 5.40508 6.58735 5.35357L6.58735 7.85336C6.58735 8.26723 6.77007 8.63788 7.07596 8.84476C7.22901 8.94825 7.39678 9 7.56466 9C7.73246 9 7.9003 8.94825 8.05327 8.84476L13.0114 5.49152C13.3174 5.28464 13.5 4.91394 13.5 4.50002C13.5 4.08615 13.3174 3.71536 13.0114 3.50848Z" id="Next" fill="#FFFFFF" stroke="none" />
</svg>