<?xml version="1.0" encoding="utf-8"?>
<svg width="22px" height="26px" viewBox="0 0 22 26" version="1.1" xmlns:xlink="http://www.w3.org/1999/xlink" xmlns="http://www.w3.org/2000/svg">
  <desc>Created with Lunacy</desc>
  <path d="M20.0362 16.3282C20.1761 16.5993 20.4423 16.851 20.7244 17.1176L20.7287 17.1216C21.4034 17.76 22.6494 18.9389 21.5878 21.0665C21.4005 21.4409 21.0397 21.6667 20.646 21.6667L1.35416 21.6667C0.960016 21.6667 0.599149 21.4407 0.412375 21.0664C-0.649607 18.9387 0.596763 17.7599 1.27144 17.1218L1.2758 17.1176C1.55779 16.8509 1.82417 16.5988 1.96623 16.3233C1.97569 16.3054 1.98309 16.2916 1.99079 16.2778C2.48829 15.4189 2.66781 13.359 2.77498 12.1282C2.79074 11.9468 2.80591 11.7734 2.82116 11.61C2.82248 11.5953 2.82409 11.5814 2.82578 11.5672C3.0654 9.75854 3.65776 7.16019 5.12307 5.02048C6.15531 3.51263 7.44271 2.50795 8.95303 2.03064C9.0407 0.895063 9.92531 0 11 0C12.0745 0 12.959 0.894984 13.047 2.03032C14.5572 2.50803 15.8447 3.51271 16.8769 5.02009C18.3422 7.16027 18.9346 9.75862 19.1735 11.5616C19.1759 11.5814 19.1774 11.5953 19.1788 11.6092C19.194 11.773 19.2092 11.9469 19.225 12.1283C19.3322 13.3588 19.5116 15.4185 20.0061 16.2723L20.0106 16.2803C20.0196 16.2964 20.0283 16.3123 20.0362 16.3282ZM8.30209 22.75L12.6863 22.75C12.8343 22.75 12.9674 22.8061 13.0611 22.9165C13.2136 23.0964 13.2056 23.3342 13.195 23.4302C13.0342 24.8948 11.8536 26 10.4488 26C9.05936 26 7.88033 24.9103 7.70615 23.4636C7.6818 23.2615 7.73024 23.0791 7.84246 22.9454C7.91922 22.8539 8.06117 22.75 8.30209 22.75Z" id="Notifications" fill="#1F2022" fill-opacity="0.3" fill-rule="evenodd" stroke="none" />
</svg>