<?xml version="1.0" encoding="utf-8"?>
<svg width="70px" height="71px" viewBox="0 0 70 71" version="1.1" xmlns:xlink="http://www.w3.org/1999/xlink" xmlns="http://www.w3.org/2000/svg">
  <desc>Created with Lunacy</desc>
  <g id="Pause">
    <path d="M1.55785 36.702C1.55785 36.702 -6.39155 1.90488e-12 26.2233 0C58.8381 -1.89133e-12 64.4134 20.1946 64.4134 20.1946C64.4134 20.1946 60.1981 44.8386 62.3058 47.8507C64.4134 50.8629 54.9788 63.3399 45.855 63.3399C36.7312 63.3399 28.436 55.8091 26.2233 55.8091C24.7984 55.8091 17.6853 53.3152 4.30304 41.193C3.42598 40.3985 1.55785 36.702 1.55785 36.702Z" transform="matrix(-0.1045285 0.9945219 -0.9945219 -0.1045285 69.72601 6.62085)" id="Path-3" fill="#336CFB" fill-opacity="0.2" stroke="none" />
    <path d="M0 22.2253C0 22.2253 2.17958 3.86228 15.8053 1.03124C29.4311 -1.7998 28.824 1.98923 31.9225 2.98412C35.0209 3.97902 48.1187 5.98161 48.1187 5.98161C48.1187 5.98161 54.1355 6.40487 56.5312 17.1536C58.9269 27.9024 55.4489 32.5026 56.5312 36.9913C57.6134 41.4799 52.4371 54.6508 43.0433 56.9042C33.6494 59.1576 27.3464 56.9042 27.3464 56.9042C27.3464 56.9042 14.2147 54.2803 8.37337 44.2357C2.53205 34.1911 -1.1711e-13 32.136 0 27.755C1.17698e-13 23.3739 0 22.2253 0 22.2253Z" transform="translate(8.172485 7.70752)" id="Path-2" fill="#336CFB" stroke="none" />
    <path d="M1.01069 24.9132C1.01069 24.9132 -4.14665 1.29302e-12 17.0129 0C38.1724 -1.28383e-12 41.7895 13.708 41.7895 13.708C41.7895 13.708 39.0547 30.4363 40.4221 32.4809C41.7895 34.5255 35.6686 42.9949 29.7494 42.9949C23.8301 42.9949 18.4484 37.883 17.0129 37.883C16.0885 37.883 11.4737 36.1902 2.79168 27.9617C2.22268 27.4224 1.01069 24.9132 1.01069 24.9132Z" transform="matrix(-0.224951 -0.9743701 0.9743701 -0.224951 21.40973 60.4939)" id="Path-3-Copy" fill="#FFFFFF" fill-opacity="0.4" stroke="none" />
    <path d="M19.9992 39.9984C31.0445 39.9984 39.9984 31.0445 39.9984 19.9992C39.9984 8.95395 31.0445 0 19.9992 0C8.95395 0 0 8.95395 0 19.9992C0 31.0445 8.95395 39.9984 19.9992 39.9984Z" transform="translate(20.92767 16.74072)" id="Oval" fill="#FFFFFF" stroke="none" />
  </g>
</svg>