<?xml version="1.0" encoding="utf-8"?>
<svg width="13px" height="15px" viewBox="0 0 13 15" version="1.1" xmlns:xlink="http://www.w3.org/1999/xlink" xmlns="http://www.w3.org/2000/svg">
  <desc>Created with Lunacy</desc>
  <path d="M1.68201 0L3.77253 0C4.70001 0 5.45455 0.707493 5.45455 1.57715L5.45455 12.9683C5.45455 13.838 4.70001 14.5455 3.77253 14.5455L1.68201 14.5455C0.754532 14.5455 0 13.838 0 12.9683L0 1.57715C0 0.707493 0.754532 0 1.68201 0ZM8.95474 0L11.0453 0C11.9727 0 12.7273 0.707493 12.7273 1.57715L12.7273 12.9683C12.7273 13.838 11.9727 14.5455 11.0453 14.5455L8.95474 14.5455C8.02726 14.5455 7.27273 13.838 7.27273 12.9683L7.27273 1.57715C7.27273 0.707493 8.02726 0 8.95474 0Z" id="Pause" fill="#336CFB" fill-rule="evenodd" stroke="none" />
</svg>