<?xml version="1.0" encoding="utf-8"?>
<svg width="22px" height="22px" viewBox="0 0 22 22" version="1.1" xmlns:xlink="http://www.w3.org/1999/xlink" xmlns="http://www.w3.org/2000/svg">
  <desc>Created with Lunacy</desc>
  <g id="Pause">
    <path d="M11 22C17.0751 22 22 17.0751 22 11C22 4.92487 17.0751 0 11 0C4.92487 0 0 4.92487 0 11C0 17.0751 4.92487 22 11 22Z" id="Oval" fill="#336CFB" stroke="none" />
    <path d="M0.925107 0L2.07489 0C2.58501 0 3 0.389121 3 0.867434L3 7.13257C3 7.61088 2.58501 8 2.07489 8L0.925107 8C0.414993 8 0 7.61088 0 7.13257L0 0.867434C0 0.389121 0.414993 0 0.925107 0ZM4.92511 0L6.07489 0C6.58501 0 7 0.389121 7 0.867434L7 7.13257C7 7.61088 6.58501 8 6.07489 8L4.92511 8C4.41499 8 4 7.61088 4 7.13257L4 0.867434C4 0.389121 4.41499 0 4.92511 0Z" transform="translate(7.5 7)" id="Pause" fill="#FFFFFF" fill-rule="evenodd" stroke="none" />
  </g>
</svg>