<?xml version="1.0" encoding="utf-8"?>
<svg width="10px" height="10px" viewBox="0 0 10 10" version="1.1" xmlns:xlink="http://www.w3.org/1999/xlink" xmlns="http://www.w3.org/2000/svg">
  <desc>Created with Lunacy</desc>
  <path d="M9.99974 5.00012C9.99974 5.48346 9.60803 5.87516 9.12443 5.87516L5.87479 5.87516L5.87479 9.12496C5.87479 9.60843 5.48296 10.0001 4.99968 10C4.758 10 4.53925 9.9022 4.38104 9.74391C4.22263 9.58539 4.1247 9.36674 4.12481 9.12519L4.12468 5.87503L0.874653 5.87503C0.633125 5.87503 0.414543 5.77724 0.256006 5.6187C0.097861 5.46056 3.26616e-08 5.2418 3.26616e-08 5.00012C-0.000130594 4.51687 0.391575 4.12507 0.87511 4.12507L4.12481 4.12507L4.12481 0.875241C4.12481 0.391836 4.51674 0 5.00005 0C5.4832 0.000130626 5.87477 0.391575 5.87503 0.874914L5.87503 4.12507L9.12506 4.12507C9.60829 4.12534 9.9995 4.51687 9.99974 5.00012Z" id="Plus" fill="#FFFFFF" stroke="none" />
</svg>