<?xml version="1.0" encoding="utf-8"?>
<svg width="16px" height="14px" viewBox="0 0 16 14" version="1.1" xmlns:xlink="http://www.w3.org/1999/xlink" xmlns="http://www.w3.org/2000/svg">
  <desc>Created with Lunacy</desc>
  <path d="M10.7296 1.97355L10.7367 1.97392C13.6468 1.97793 16 4.32989 16 7.23651C16 8.54762 15.4752 9.7821 14.5607 10.696C14.3035 10.953 13.8863 10.9532 13.6289 10.6964C13.3715 10.4396 13.3713 10.0231 13.6285 9.76606C14.2991 9.09593 14.6823 8.19454 14.6823 7.23651C14.6823 5.05396 12.9151 3.28943 10.7292 3.28943L10.724 3.28916L7.04941 3.28916L7.90124 4.13969C8.15852 4.39659 8.15852 4.81313 7.90124 5.07003C7.64395 5.32693 7.22678 5.32693 6.96949 5.07003L4.99296 3.09649C4.97761 3.08116 4.96309 3.06504 4.94932 3.04826C4.94308 3.04071 4.93768 3.03269 4.93184 3.02492C4.9248 3.01554 4.91751 3.00636 4.91096 2.99658C4.90469 2.98724 4.89926 2.97752 4.89355 2.96796C4.88823 2.95914 4.88267 2.95048 4.8778 2.94138C4.87258 2.93164 4.86813 2.92159 4.86343 2.91163C4.85896 2.90213 4.8542 2.89278 4.85015 2.88304C4.84617 2.87339 4.84293 2.86352 4.83941 2.85371C4.83567 2.84326 4.83166 2.83296 4.82841 2.82229C4.82542 2.81249 4.82326 2.80253 4.82075 2.7926C4.81801 2.78171 4.81495 2.77098 4.81276 2.75988C4.81047 2.74841 4.80914 2.73684 4.80747 2.72528C4.80608 2.7156 4.80423 2.70607 4.80327 2.69626C4.80117 2.67492 4.80006 2.65349 4.80003 2.63206L4.8 2.63135L4.80003 2.6307C4.80003 2.60924 4.80117 2.58781 4.80327 2.56644C4.80426 2.55663 4.80608 2.54714 4.80747 2.53745C4.80911 2.52592 4.81047 2.51433 4.81276 2.50286C4.81495 2.49175 4.81801 2.48102 4.82075 2.47014C4.82326 2.46021 4.82545 2.45022 4.82841 2.44041C4.83166 2.42974 4.83564 2.41944 4.83941 2.40902C4.84293 2.39921 4.84617 2.38932 4.85019 2.37963C4.85423 2.36992 4.85899 2.36058 4.86347 2.35108C4.86816 2.34112 4.87261 2.33107 4.87783 2.32129C4.88271 2.31219 4.88826 2.30356 4.89355 2.29474C4.89926 2.28515 4.90469 2.27544 4.91096 2.26609C4.91748 2.25635 4.92474 2.24719 4.93178 2.23782C4.93765 2.23001 4.94308 2.222 4.94932 2.21441C4.96309 2.19767 4.97761 2.18154 4.99296 2.16621L6.96949 0.192674C7.22678 -0.0642248 7.64395 -0.0642248 7.90124 0.192674C8.15852 0.449574 8.15852 0.866114 7.90124 1.12301L7.04941 1.97355L10.7296 1.97355ZM11.0891 11.7339C11.0826 11.7436 11.0754 11.7527 11.0684 11.7621C11.0625 11.7699 11.0571 11.7779 11.0508 11.7856C11.0371 11.8022 11.0227 11.8182 11.0075 11.8334L11.0071 11.8338L9.03057 13.8073C8.77328 14.0642 8.3561 14.0642 8.09881 13.8073C7.84152 13.5504 7.84152 13.1339 8.09881 12.877L8.95064 12.0265L5.27046 12.0265L5.26339 12.0261C2.3532 12.0221 0 9.67012 0 6.76342C0 5.45231 0.524804 4.21784 1.43933 3.304C1.69653 3.04698 2.11367 3.04679 2.37109 3.3036C2.6285 3.5604 2.62868 3.97691 2.37149 4.23393C1.70091 4.90407 1.31771 5.80545 1.31771 6.76348C1.31771 8.94602 3.08493 10.7105 5.2708 10.7105L5.27602 10.7108L8.95064 10.7108L8.09881 9.86029C7.84152 9.60339 7.84152 9.18685 8.09881 8.92995C8.3561 8.67306 8.77328 8.67306 9.03057 8.92995L11.0071 10.9035L11.0078 10.9042C11.0229 10.9193 11.0372 10.9352 11.0508 10.9517C11.057 10.9593 11.0625 10.9674 11.0684 10.9752C11.0754 10.9846 11.0826 10.9937 11.0891 11.0034C11.0954 11.0128 11.1008 11.0225 11.1066 11.0321C11.1118 11.0409 11.1174 11.0495 11.1222 11.0586C11.1275 11.0684 11.1319 11.0785 11.1367 11.0885C11.1412 11.0979 11.1459 11.1072 11.1499 11.1169C11.1539 11.1266 11.1571 11.1366 11.1607 11.1464C11.1644 11.1568 11.1685 11.167 11.1717 11.1777C11.1747 11.1876 11.1769 11.1976 11.1794 11.2075C11.1821 11.2184 11.1851 11.2291 11.1873 11.2401C11.1896 11.2517 11.191 11.2633 11.1926 11.2749C11.194 11.2845 11.1958 11.294 11.1968 11.3037C11.2011 11.3469 11.2011 11.3904 11.1968 11.4336C11.1958 11.4433 11.194 11.4527 11.1926 11.4623C11.1909 11.4739 11.1896 11.4856 11.1873 11.4972C11.1851 11.5082 11.1821 11.5189 11.1793 11.5297C11.1768 11.5396 11.1746 11.5497 11.1716 11.5596C11.1684 11.5702 11.1644 11.5804 11.1607 11.5908C11.1572 11.6007 11.1539 11.6106 11.1499 11.6203C11.1459 11.63 11.1412 11.6393 11.1367 11.6487C11.1319 11.6588 11.1275 11.6688 11.1223 11.6787C11.1174 11.6877 11.1119 11.6963 11.1066 11.7051C11.1008 11.7148 11.0954 11.7245 11.0891 11.7339Z" id="Repeat" fill="#FFFFFF" fill-rule="evenodd" stroke="none" />
</svg>