<?xml version="1.0" encoding="utf-8"?>
<svg width="18px" height="18px" viewBox="0 0 18 18" version="1.1" xmlns:xlink="http://www.w3.org/1999/xlink" xmlns="http://www.w3.org/2000/svg">
  <desc>Created with Lunacy</desc>
  <defs>
    <path d="M16.0824 17.6715C16.5215 18.1095 17.2324 18.1095 17.6715 17.6715C18.1095 17.2324 18.1095 16.5215 17.6715 16.0835L14.134 12.546C16.4362 9.46662 16.2183 5.10026 13.4197 2.30278C10.3504 -0.767594 5.37204 -0.767594 2.30278 2.30278C-0.767594 5.37316 -0.767594 10.3504 2.30278 13.4197C5.10026 16.2183 9.46662 16.4362 12.546 14.134L16.0824 17.6715ZM3.89075 3.89075C6.08404 1.69747 9.63844 1.69747 11.8317 3.89075C14.025 6.08404 14.025 9.63844 11.8317 11.8317C9.63844 14.025 6.08404 14.025 3.89075 11.8317C1.69747 9.63844 1.69747 6.08404 3.89075 3.89075Z" id="path_1" />
    <clipPath id="mask_1">
      <use xlink:href="#path_1" />
    </clipPath>
  </defs>
  <path d="M16.0824 17.6715C16.5215 18.1095 17.2324 18.1095 17.6715 17.6715C18.1095 17.2324 18.1095 16.5215 17.6715 16.0835L14.134 12.546C16.4362 9.46662 16.2183 5.10026 13.4197 2.30278C10.3504 -0.767594 5.37204 -0.767594 2.30278 2.30278C-0.767594 5.37316 -0.767594 10.3504 2.30278 13.4197C5.10026 16.2183 9.46662 16.4362 12.546 14.134L16.0824 17.6715ZM3.89075 3.89075C6.08404 1.69747 9.63844 1.69747 11.8317 3.89075C14.025 6.08404 14.025 9.63844 11.8317 11.8317C9.63844 14.025 6.08404 14.025 3.89075 11.8317C1.69747 9.63844 1.69747 6.08404 3.89075 3.89075Z" id="Search" fill="#1F2022" fill-rule="evenodd" stroke="none" />
</svg>