<?xml version="1.0" encoding="utf-8"?>
<svg width="16px" height="16px" viewBox="0 0 16 16" version="1.1" xmlns:xlink="http://www.w3.org/1999/xlink" xmlns="http://www.w3.org/2000/svg">
  <desc>Created with Lunacy</desc>
  <path d="M14.1701 8C14.1701 8.272 14.1455 8.528 14.1126 8.784L15.8479 10.104C16.0042 10.224 16.0453 10.44 15.9466 10.616L14.3017 13.384C14.203 13.56 13.9892 13.632 13.8 13.56L11.7522 12.76C11.3245 13.072 10.8639 13.344 10.3622 13.544L10.0497 15.664C10.025 15.856 9.85231 16 9.6467 16L6.35693 16C6.15132 16 5.97861 15.856 5.95393 15.664L5.64141 13.544C5.13972 13.344 4.67915 13.08 4.25148 12.76L2.2036 13.56C2.02266 13.624 1.8006 13.56 1.70191 13.384L0.0570213 10.616C-0.0416718 10.44 -0.000549717 10.224 0.155714 10.104L1.89107 8.784C1.85817 8.528 1.8335 8.264 1.8335 8C1.8335 7.736 1.85817 7.472 1.89107 7.216L0.155714 5.896C-0.000549717 5.776 -0.0498963 5.56 0.0570213 5.384L1.70191 2.616C1.8006 2.44 2.01443 2.368 2.2036 2.44L4.25148 3.24C4.67915 2.928 5.13972 2.656 5.64141 2.456L5.95393 0.336C5.97861 0.144 6.15132 0 6.35693 0L9.6467 0C9.85231 0 10.025 0.144 10.0497 0.336L10.3622 2.456C10.8639 2.656 11.3245 2.92 11.7522 3.24L13.8 2.44C13.981 2.376 14.203 2.44 14.3017 2.616L15.9466 5.384C16.0453 5.56 16.0042 5.776 15.8479 5.896L14.1126 7.216C14.1455 7.472 14.1701 7.728 14.1701 8ZM5.12327 8C5.12327 9.544 6.4145 10.8 8.00182 10.8C9.58913 10.8 10.8804 9.544 10.8804 8C10.8804 6.456 9.58913 5.2 8.00182 5.2C6.4145 5.2 5.12327 6.456 5.12327 8Z" id="Settings" fill="#1F2022" fill-rule="evenodd" stroke="none" />
</svg>