<?xml version="1.0" encoding="utf-8"?>
<svg width="16px" height="14px" viewBox="0 0 16 14" version="1.1" xmlns:xlink="http://www.w3.org/1999/xlink" xmlns="http://www.w3.org/2000/svg">
  <desc>Created with Lunacy</desc>
  <path d="M15.8668 11.8352C15.8739 11.8261 15.8812 11.8173 15.8878 11.8079C15.8941 11.7988 15.8996 11.7894 15.9055 11.7801C15.9108 11.7716 15.9164 11.7632 15.9213 11.7545C15.9266 11.745 15.9311 11.7352 15.9359 11.7255C15.9404 11.7164 15.9452 11.7074 15.9493 11.698C15.9533 11.6886 15.9566 11.679 15.9602 11.6695C15.964 11.6594 15.968 11.6495 15.9713 11.6393C15.9743 11.6297 15.9765 11.62 15.979 11.6104C15.9818 11.5999 15.9849 11.5895 15.9871 11.5789C15.9894 11.5677 15.9908 11.5564 15.9925 11.5452C15.9939 11.5359 15.9958 11.5268 15.9967 11.5174C16.001 11.4756 16.001 11.4335 15.9967 11.3918C15.9958 11.3823 15.9939 11.3732 15.9925 11.3639C15.9908 11.3527 15.9895 11.3414 15.9871 11.3302C15.9849 11.3196 15.9819 11.3092 15.9791 11.2987C15.9765 11.2891 15.9743 11.2794 15.9713 11.2699C15.968 11.2596 15.964 11.2497 15.9602 11.2396C15.9566 11.2301 15.9533 11.2205 15.9493 11.2111C15.9452 11.2017 15.9404 11.1927 15.9359 11.1836C15.9311 11.1739 15.9266 11.1641 15.9213 11.1546C15.9164 11.1459 15.9108 11.1376 15.9055 11.1291C15.8996 11.1198 15.8941 11.1103 15.8878 11.1013C15.8812 11.0919 15.8739 11.083 15.8668 11.074C15.8608 11.0664 15.8553 11.0586 15.849 11.0512C15.8352 11.0353 15.8207 11.0199 15.8055 11.0053C15.8052 11.0051 15.805 11.0048 15.8048 11.0046L13.8048 9.09552C13.5444 8.84701 13.1223 8.84701 12.862 9.09552C12.6016 9.34403 12.6016 9.74697 12.862 9.99548L13.7239 10.8182L11.3334 10.8182C9.12423 10.8182 7.33338 9.10873 7.33338 6.99998C7.33338 4.89124 9.12423 3.18179 11.3334 3.18179L13.7239 3.18179L12.862 4.00455C12.6017 4.25306 12.6017 4.656 12.862 4.90451C13.1223 5.15302 13.5445 5.15302 13.8048 4.90451L15.8048 2.99541C15.805 2.99529 15.805 2.99517 15.8052 2.99505C15.8205 2.98035 15.8351 2.96487 15.849 2.94879C15.8553 2.94142 15.8608 2.93367 15.8667 2.92612C15.8738 2.91705 15.8812 2.90819 15.8878 2.89876C15.8941 2.88973 15.8996 2.88033 15.9055 2.87102C15.9108 2.86249 15.9164 2.85417 15.9213 2.84537C15.9266 2.83588 15.9311 2.82613 15.9359 2.81646C15.9405 2.80731 15.9452 2.7983 15.9493 2.78893C15.9534 2.77954 15.9566 2.76996 15.9602 2.76041C15.964 2.75036 15.968 2.74043 15.9713 2.73014C15.9744 2.72059 15.9766 2.7109 15.9791 2.70126C15.9819 2.69079 15.985 2.68044 15.9872 2.66976C15.9895 2.65858 15.9909 2.6473 15.9925 2.63605C15.9939 2.62678 15.9958 2.61762 15.9968 2.60822C16.0011 2.56646 16.0011 2.52437 15.9968 2.48261C15.9958 2.47321 15.994 2.46409 15.9925 2.45481C15.9909 2.44353 15.9895 2.43226 15.9871 2.4211C15.9849 2.41042 15.9819 2.4001 15.9791 2.38963C15.9765 2.37997 15.9743 2.37027 15.9713 2.36073C15.968 2.35047 15.964 2.34053 15.9602 2.33051C15.9566 2.32096 15.9534 2.31136 15.9493 2.30196C15.9452 2.2926 15.9405 2.28359 15.9359 2.27446C15.9311 2.26476 15.9266 2.25501 15.9213 2.24552C15.9164 2.23675 15.9108 2.22843 15.9055 2.2199C15.8997 2.21059 15.8942 2.2012 15.8878 2.19213C15.8812 2.18273 15.8739 2.17387 15.8668 2.16484C15.8609 2.15726 15.8553 2.14947 15.849 2.14211C15.8351 2.12603 15.8206 2.11055 15.8052 2.09584C15.805 2.09572 15.805 2.0956 15.8048 2.09548L13.8048 0.186383C13.5445 -0.0621277 13.1223 -0.0621277 12.862 0.186383C12.6017 0.434894 12.6017 0.837833 12.862 1.08634L13.7239 1.90911L11.3334 1.90911C9.32514 1.90911 7.57644 2.9688 6.66672 4.53418C5.75697 2.96874 4.00827 1.90905 2.00001 1.90905L0.66666 1.90905C0.29847 1.90905 0 2.19398 0 2.54543C0 2.89689 0.29847 3.18179 0.66666 3.18179L2.00001 3.18179C4.20918 3.18179 6.00003 4.89124 6.00003 6.99998C6.00003 9.10873 4.20918 10.8182 2.00001 10.8182L0.66666 10.8182C0.29847 10.8182 0 11.1031 0 11.4545C0 11.806 0.29847 12.0909 0.66666 12.0909L2.00001 12.0909C4.00827 12.0909 5.75697 11.0312 6.66669 9.46582C7.57641 11.0312 9.32511 12.0909 11.3334 12.0909L13.7239 12.0909L12.862 12.9137C12.6016 13.1622 12.6016 13.5651 12.862 13.8136C13.1223 14.0621 13.5444 14.0621 13.8048 13.8136L15.8048 11.9045C15.8049 11.9044 15.805 11.9043 15.8051 11.9042C15.8205 11.8895 15.8351 11.874 15.849 11.8579C15.8553 11.8505 15.8608 11.8427 15.8668 11.8352Z" id="Shuffle" fill="#FFFFFF" stroke="none" />
</svg>