<?xml version="1.0" encoding="utf-8"?>
<svg width="14px" height="15px" viewBox="0 0 14 15" version="1.1" xmlns:xlink="http://www.w3.org/1999/xlink" xmlns="http://www.w3.org/2000/svg">
  <desc>Created with Lunacy</desc>
  <path d="M9.89658 9.29563C8.77685 10.4192 8.56399 12.0271 9.42127 12.8873C10.2783 13.7473 11.8809 13.5339 13.0006 12.4104C13.6878 11.7205 14.0319 10.8491 13.9977 10.0794L13.9995 10.0794L13.9995 2.63789L13.9995 2.55265L13.9995 0L4.50816 2.55265L4.42902 2.55265L4.42902 2.574L4.42902 5.21209L4.42902 10.2704C3.54491 9.57143 2.05826 9.81982 1.00134 10.8804C-0.118299 12.0042 -0.331221 13.6123 0.526055 14.4723C1.3832 15.3323 2.98571 15.1187 4.10534 13.9954C4.68737 13.4112 5.02203 12.6968 5.09097 12.0241L5.10166 12.0241L5.10166 11.8994L5.10166 11.6154L5.10166 5.03096L13.3271 2.81856L13.3271 8.68756C12.4429 7.98613 10.9545 8.234 9.89658 9.29563Z" id="Shape" fill="#1F2022" stroke="none" />
</svg>