<?xml version="1.0" encoding="utf-8"?>
<svg width="15px" height="13px" viewBox="0 0 15 13" version="1.1" xmlns:xlink="http://www.w3.org/1999/xlink" xmlns="http://www.w3.org/2000/svg">
  <desc>Created with Lunacy</desc>
  <g id="Volume">
    <path d="M2.64724 3.74227L0 3.74227L0 9.14826L2.64724 9.14826L7.65172 12.5509C7.65172 12.5509 8.57143 13.2553 8.57143 12.5274C8.57143 11.7973 8.57143 0.92153 8.57143 0.257426C8.57143 -0.314049 7.7619 0.244343 7.7619 0.244343L2.64724 3.74227Z" id="Volume" fill="#FFFFFF" stroke="none" />
    <path d="M0.867067 0.147798C0.668573 -0.049266 0.347365 -0.049266 0.148871 0.147798C-0.0496236 0.345719 -0.0496236 0.66659 0.148871 0.861512C0.802481 1.51311 1.12627 2.35877 1.12756 3.21086C1.12584 4.06466 0.80205 4.91546 0.148871 5.56492C-0.0496236 5.76155 -0.0496236 6.08371 0.148871 6.2812C0.247903 6.37973 0.377505 6.42857 0.50883 6.42857C0.638433 6.42857 0.768035 6.38016 0.867067 6.2812C1.71831 5.4334 2.14372 4.31999 2.14286 3.21086C2.14372 2.10302 1.71702 0.993031 0.867067 0.147798Z" transform="translate(9.642858 3.214286)" id="Shape" fill="#FFFFFF" stroke="none" />
    <path d="M0.994142 0.165444C0.764251 -0.0551478 0.398002 -0.0551478 0.169095 0.165444C-0.0558726 0.386035 -0.0558726 0.740982 0.169095 0.961574C1.4239 2.17554 2.05056 3.7578 2.05154 5.34767C2.05056 6.9447 1.42636 8.53696 0.169095 9.75474C-0.0568571 9.97438 -0.0558726 10.3298 0.169095 10.5504C0.283302 10.6595 0.433445 10.7143 0.581619 10.7143C0.730777 10.7143 0.880427 10.6595 0.994142 10.5504C2.47391 9.1125 3.21429 7.22818 3.21429 5.34767C3.21429 3.47336 2.46899 1.59571 0.994142 0.165444Z" transform="translate(11.78571 1.071429)" id="Shape" fill="#FFFFFF" stroke="none" />
  </g>
</svg>